<?xml version="1.0" encoding="utf-8"?>
<!-- Generator: Adobe Illustrator 25.0.1, SVG Export Plug-In . SVG Version: 6.00 Build 0)  -->
<svg version="1.1" id="Capa_1" xmlns="http://www.w3.org/2000/svg" xmlns:xlink="http://www.w3.org/1999/xlink" x="0px" y="0px"
	 viewBox="0 0 40 40" style="enable-background:new 0 0 40 40;" xml:space="preserve">
<style type="text/css">
	.st0{fill:none;stroke:#FFFFFF;stroke-width:1.6667;stroke-linecap:round;stroke-linejoin:round;stroke-miterlimit:6.6667;}
</style>
<path class="st0" d="M11.7,3.3h16.7c4.6,0,8.3,3.7,8.3,8.3v16.7c0,4.6-3.7,8.3-8.3,8.3H11.7c-4.6,0-8.3-3.7-8.3-8.3V11.7
	C3.3,7.1,7.1,3.3,11.7,3.3z"/>
<path class="st0" d="M26.7,18.9c0.5,3.6-2,7-5.6,7.6c-3.6,0.5-7-2-7.6-5.6c-0.5-3.6,2-7,5.6-7.6c0.6-0.1,1.3-0.1,2,0
	C24,13.8,26.2,16,26.7,18.9z"/>
<line class="st0" x1="29.2" y1="10.8" x2="29.2" y2="10.8"/>
</svg>
